<?xml version="1.0" encoding="UTF-8"?>
<svg width="90px" height="90px" viewBox="0 0 90 90" version="1.1" xmlns="http://www.w3.org/2000/svg" xmlns:xlink="http://www.w3.org/1999/xlink">
    <!-- Generator: Sketch 53.2 (72643) - https://sketchapp.com -->
    <title>3</title>
    <desc>Created with Sketch.</desc>
    <defs>
        <linearGradient x1="40%" y1="100%" x2="60%" y2="0%" id="linearGradient-1">
            <stop stop-color="#F5057E" offset="0%"></stop>
            <stop stop-color="#5364BF" offset="100%"></stop>
        </linearGradient>
    </defs>
    <g id="3" stroke="none" stroke-width="1" fill="none" fill-rule="evenodd">
        <circle id="Oval" fill="url(#linearGradient-1)" cx="45" cy="45" r="45"></circle>
        <g id="secured-documents-3970_68f9f280-1def-4e28-a47c-2343ec7d9e6e" transform="translate(23.000000, 26.000000)" stroke="#FFFFFF" stroke-linecap="round" stroke-width="1.5">
            <path d="M39,16.125 L39,9 L6,9 L6,30.75 C6,31.9926407 4.99264069,33 3.75,33" id="Path"></path>
            <path d="M34.5,9 L34.5,3 L13.5,3 L13.5,0 L0,0 L0,30.75 C0,31.9926407 1.00735931,33 2.25,33 L27,33" id="Path"></path>
            <path d="M27,27 L45,27 L45,39 L27,39 L27,27 Z M31.5,27 L31.5,19.5 C31.5,17.0147186 33.5147186,15 36,15 C38.4852814,15 40.5,17.0147186 40.5,19.5 L40.5,27 L31.5,27 Z M36,31.5 L36,34.5 L36,31.5 Z" id="Shape"></path>
        </g>
    </g>
</svg>