<?xml version="1.0" encoding="UTF-8"?>
<svg width="90px" height="90px" viewBox="0 0 90 90" version="1.1" xmlns="http://www.w3.org/2000/svg" xmlns:xlink="http://www.w3.org/1999/xlink">
    <!-- Generator: Sketch 53.2 (72643) - https://sketchapp.com -->
    <title>5</title>
    <desc>Created with Sketch.</desc>
    <defs>
        <linearGradient x1="15%" y1="100%" x2="85%" y2="0%" id="linearGradient-1">
            <stop stop-color="#57EBA3" offset="0%"></stop>
            <stop stop-color="#F346ED" offset="100%"></stop>
        </linearGradient>
    </defs>
    <g id="5" stroke="none" stroke-width="1" fill="none" fill-rule="evenodd">
        <circle id="Oval" fill="url(#linearGradient-1)" cx="45" cy="45" r="45"></circle>
        <g id="lifebelt-3221_15c4a304-7594-40b4-8e43-b983670568f9" transform="translate(22.000000, 23.000000)" stroke="#FFFFFF" stroke-linecap="round" stroke-width="1.5">
            <path d="M1.5,14.14425 L1.5,8.625 C1.49999998,4.68239397 4.695894,1.48616418 8.6385,1.48575 L14.25,1.48575 M43.5,14.0505 L43.5,8.625 C43.5000001,4.68268681 40.3045631,1.4865783 36.36225,1.48575 L30.92625,1.48575 M1.49999996,30.85575 L1.5,36.36075 C1.49980107,38.2541279 2.25180306,40.0700259 3.59055306,41.4089166 C4.92930306,42.7478073 6.74512213,43.5 8.6385,43.5 L14.1795,43.5 M43.5,30.834 L43.5,36.36075 C43.5001989,38.2539979 42.7482999,40.0697823 41.4097121,41.4086514 C40.0711243,42.7475205 38.2554979,43.4998011 36.36225,43.5 L30.882,43.5" id="Shape"></path>
            <circle id="Oval" cx="22.5015" cy="22.5" r="22.5"></circle>
            <circle id="Oval" cx="22.5015" cy="22.5" r="13.5"></circle>
            <path d="M18.0375,9.70575 L16.5,0.80925 M26.96325,9.714 L28.5,0.912 M18.04575,35.289 L16.542,44.17275 M26.9565,35.289 L28.5,44.13075 M35.32125,18.05625 L44.14575,16.56375 M35.33625,26.98875 L44.1105,28.521 M9.61875,18.04575 L0.79575,16.55325 M9.666,26.98875 L0.8925,28.521" id="Shape"></path>
        </g>
    </g>
</svg>