<?xml version="1.0" encoding="UTF-8"?>
<svg width="90px" height="90px" viewBox="0 0 90 90" version="1.1" xmlns="http://www.w3.org/2000/svg" xmlns:xlink="http://www.w3.org/1999/xlink">
    <!-- Generator: Sketch 53.2 (72643) - https://sketchapp.com -->
    <title>6</title>
    <desc>Created with Sketch.</desc>
    <defs>
        <linearGradient x1="0%" y1="85%" x2="100%" y2="15%" id="linearGradient-1">
            <stop stop-color="#5B0114" offset="0%"></stop>
            <stop stop-color="#C07AE3" offset="100%"></stop>
        </linearGradient>
    </defs>
    <g id="6" stroke="none" stroke-width="1" fill="none" fill-rule="evenodd">
        <circle id="Oval" fill="url(#linearGradient-1)" cx="45" cy="45" r="45"></circle>
        <g id="data-app-1773_ed2bd0de-e2c0-4bff-bd46-83e5a6f7375e" transform="translate(23.000000, 25.000000)" stroke="#FFFFFF" stroke-linecap="round" stroke-width="1.5">
            <path d="M0,13.5 L0,30 L22.5615,40.5 L45,30 L45,13.5 L22.5,24.036 L0,13.5 Z M22.5,24.036 L22.5,40.5 L22.5,24.036 Z M41.499,11.8665 L45,13.5 L41.499,11.8665 Z M26.59425,4.911 L33.45525,8.11275 L26.59425,4.911 Z M11.53125,8.1195 L18.3915,4.917 L11.53125,8.1195 Z M0,13.5 L3.5565,11.84025 L0,13.5 Z" id="Shape"></path>
            <ellipse id="Oval" cx="8.25" cy="10.5" rx="5.25" ry="3"></ellipse>
            <ellipse id="Oval" cx="22.5" cy="15" rx="5.25" ry="3"></ellipse>
            <ellipse id="Oval" cx="22.5" cy="3" rx="5.25" ry="3"></ellipse>
            <ellipse id="Oval" cx="36.75" cy="10.5" rx="5.25" ry="3"></ellipse>
        </g>
    </g>
</svg>